<svg width="50" height="50" viewBox="0 0 50 50" fill="none" xmlns="http://www.w3.org/2000/svg">
<rect width="50" height="50" rx="25" fill="#00BAC7"/>
<path d="M24.918 28.494L29.076 18H34.332V18.72C33.936 18.72 33.612 18.762 33.36 18.846C33.12 18.918 32.934 19.056 32.802 19.26C32.67 19.464 32.58 19.746 32.532 20.106C32.496 20.454 32.478 20.898 32.478 21.438V28.422C32.478 29.022 32.502 29.496 32.55 29.844C32.598 30.192 32.694 30.462 32.838 30.654C32.982 30.846 33.186 30.972 33.45 31.032C33.726 31.092 34.086 31.128 34.53 31.14V31.86H27.762V31.14C28.206 31.128 28.56 31.092 28.824 31.032C29.1 30.96 29.31 30.834 29.454 30.654C29.61 30.474 29.712 30.222 29.76 29.898C29.808 29.562 29.832 29.112 29.832 28.548V20.124H29.742L24.9 32.04H23.568L18.564 20.124H18.492V28.422C18.492 29.022 18.516 29.496 18.564 29.844C18.612 30.192 18.708 30.462 18.852 30.654C18.996 30.846 19.2 30.972 19.464 31.032C19.74 31.092 20.1 31.128 20.544 31.14V31.86H15V31.14C15.444 31.128 15.804 31.092 16.08 31.032C16.356 30.96 16.566 30.834 16.71 30.654C16.866 30.474 16.968 30.222 17.016 29.898C17.064 29.562 17.088 29.112 17.088 28.548V21.312C17.088 20.808 17.064 20.388 17.016 20.052C16.968 19.716 16.878 19.452 16.746 19.26C16.614 19.056 16.422 18.918 16.17 18.846C15.93 18.762 15.606 18.72 15.198 18.72V18H20.652L24.846 28.494H24.918Z" fill="white"/>
</svg>
